HIERARCHY
ROOT hip
{
	OFFSET	0.00  0.00  0.00 
	CHANNELS 6 Xposition Yposition Zposition Xrotation Zrotation Yrotation
	JOINT abdomen
	{
		OFFSET	-0.091370 2.926705 0.251545
		CHANNELS 3 Xrotation Zrotation Yrotation
		JOINT chest
		{
			OFFSET	0.096375 5.782475 -0.385498
			CHANNELS 3 Xrotation Zrotation Yrotation
			JOINT neck
			{
				OFFSET	-0.385499 9.926591 0.481873
				CHANNELS 3 Xrotation Zrotation Yrotation
				JOINT head
				{
					OFFSET	0.289124 4.336854 0.578248
					CHANNELS 3 Xrotation Zrotation Yrotation
					JOINT leftEye
					{
						OFFSET	1.108308 2.409369 3.662236
						CHANNELS 3 Zrotation Yrotation Xrotation
						End Site
						{
							OFFSET 0.000000 0.000000 0.770997
						}
					}
					JOINT rightEye
					{
						OFFSET	-1.108308 2.409369 3.662236
						CHANNELS 3 Zrotation Yrotation Xrotation
						End Site
						{
							OFFSET 0.000000 0.000000 0.770997
						}
					}
				}
			}
			JOINT rCollar
			{
				OFFSET	-1.252870 7.902721 -1.156496
				CHANNELS 3 Zrotation Yrotation Xrotation
				JOINT rShldr
				{
					OFFSET	-4.047735 -0.674619 1.252870
					CHANNELS 3 Zrotation Yrotation Xrotation
					JOINT rForeArm
					{
						OFFSET	-11.950454 0.385494 -0.674622
						CHANNELS 3 Yrotation Zrotation Xrotation
						JOINT rHand
						{
							OFFSET	-10.392750 -0.380100 3.772546
							CHANNELS 3 Zrotation Yrotation Xrotation
							JOINT rThumb1
							{
								OFFSET	-0.690333 -0.198146 1.335309
								CHANNELS 3 Yrotation Zrotation Xrotation
								JOINT rThumb2
								{
									OFFSET	-0.735722 -0.503747 1.263722
									CHANNELS 3 Yrotation Zrotation Xrotation
									JOINT rThumb3
									{
										OFFSET	-0.747194 -0.027757 0.576108
										CHANNELS 3 Yrotation Zrotation Xrotation
										End Site
										{
											OFFSET -0.943795 0.000000 0.640593
										}
									}
								}
							}
							JOINT rIndex1
							{
								OFFSET	-2.906950 0.187353 2.202681
								CHANNELS 3 Zrotation Yrotation Xrotation
								JOINT rIndex2
								{
									OFFSET	-1.256436 0.082880 0.837139
									CHANNELS 3 Zrotation Yrotation Xrotation
									JOINT rIndex3
									{
										OFFSET	-0.882115 -0.077480 0.335326
										CHANNELS 3 Zrotation Yrotation Xrotation
										End Site
										{
											OFFSET -0.911225 -0.024770 0.453520
										}
									}
								}
							}
							JOINT rMid1
							{
								OFFSET	-3.485196 0.380100 1.335309
								CHANNELS 3 Zrotation Yrotation Xrotation
								JOINT rMid2
								{
									OFFSET	-1.398011 -0.114204 0.506719
									CHANNELS 3 Zrotation Yrotation Xrotation
									JOINT rMid3
									{
										OFFSET	-1.162182 -0.169522 0.376622
										CHANNELS 3 Zrotation Yrotation Xrotation
										End Site
										{
											OFFSET -1.359556 0.003854 0.476891
										}
									}
								}
							}
							JOINT rRing1
							{
								OFFSET	-3.677945 -0.005394 0.467937
								CHANNELS 3 Zrotation Yrotation Xrotation
								JOINT rRing2
								{
									OFFSET	-1.146666 0.049821 0.202165
									CHANNELS 3 Zrotation Yrotation Xrotation
									JOINT rRing3
									{
										OFFSET	-1.315031 -0.140703 0.141073
										CHANNELS 3 Zrotation Yrotation Xrotation
										End Site
										{
											OFFSET -1.025233 0.023420 -0.019555
										}
									}
								}
							}
							JOINT rPinky1
							{
								OFFSET	-3.581572 -0.198146 -0.399434
								CHANNELS 3 Zrotation Yrotation Xrotation
								JOINT rPinky2
								{
									OFFSET	-0.993622 -0.205183 0.249071
									CHANNELS 3 Zrotation Yrotation Xrotation
									JOINT rPinky3
									{
										OFFSET	-0.542878 -0.159688 -0.037548
										CHANNELS 3 Zrotation Yrotation Xrotation
										End Site
										{
											OFFSET -0.834893 0.061775 0.015796
										}
									}
								}
							}
						}
					}
				}
			}
			JOINT lCollar
			{
				OFFSET	1.060121 7.902721 -1.156496
				CHANNELS 3 Zrotation Yrotation Xrotation
				JOINT lShldr
				{
					OFFSET	4.047735 -0.674619 1.252870
					CHANNELS 3 Zrotation Yrotation Xrotation
					JOINT lForeArm
					{
						OFFSET	11.950454 0.385494 -0.674622
						CHANNELS 3 Yrotation Zrotation Xrotation
						JOINT lHand
						{
							OFFSET	10.392750 -0.380100 3.772546
							CHANNELS 3 Zrotation Yrotation Xrotation
							JOINT lThumb1
							{
								OFFSET	0.690333 -0.198146 1.335309
								CHANNELS 3 Yrotation Zrotation Xrotation
								JOINT lThumb2
								{
									OFFSET	0.735722 -0.503747 1.263722
									CHANNELS 3 Yrotation Zrotation Xrotation
									JOINT lThumb3
									{
										OFFSET	0.747194 -0.027757 0.576108
										CHANNELS 3 Yrotation Zrotation Xrotation
										End Site
										{
											OFFSET 0.943795 0.000000 0.640593
										}
									}
								}
							}
							JOINT lIndex1
							{
								OFFSET	2.906950 0.187353 2.202681
								CHANNELS 3 Zrotation Yrotation Xrotation
								JOINT lIndex2
								{
									OFFSET	1.256436 0.082880 0.837139
									CHANNELS 3 Zrotation Yrotation Xrotation
									JOINT lIndex3
									{
										OFFSET	0.882115 -0.077480 0.335326
										CHANNELS 3 Zrotation Yrotation Xrotation
										End Site
										{
											OFFSET 0.911225 -0.024770 0.453520
										}
									}
								}
							}
							JOINT lMid1
							{
								OFFSET	3.485196 0.380100 1.335309
								CHANNELS 3 Zrotation Yrotation Xrotation
								JOINT lMid2
								{
									OFFSET	1.398011 -0.114204 0.506719
									CHANNELS 3 Zrotation Yrotation Xrotation
									JOINT lMid3
									{
										OFFSET	1.162182 -0.169522 0.376622
										CHANNELS 3 Zrotation Yrotation Xrotation
										End Site
										{
											OFFSET 1.359556 0.003854 0.476891
										}
									}
								}
							}
							JOINT lRing1
							{
								OFFSET	3.677945 -0.005394 0.467937
								CHANNELS 3 Zrotation Yrotation Xrotation
								JOINT lRing2
								{
									OFFSET	1.146666 0.049821 0.202165
									CHANNELS 3 Zrotation Yrotation Xrotation
									JOINT lRing3
									{
										OFFSET	1.315031 -0.140703 0.141073
										CHANNELS 3 Zrotation Yrotation Xrotation
										End Site
										{
											OFFSET 1.025233 0.023420 -0.019555
										}
									}
								}
							}
							JOINT lPinky1
							{
								OFFSET	3.581572 -0.198146 -0.399434
								CHANNELS 3 Zrotation Yrotation Xrotation
								JOINT lPinky2
								{
									OFFSET	0.993622 -0.205183 0.249071
									CHANNELS 3 Zrotation Yrotation Xrotation
									JOINT lPinky3
									{
										OFFSET	0.542878 -0.159688 -0.037548
										CHANNELS 3 Zrotation Yrotation Xrotation
										End Site
										{
											OFFSET 0.834893 0.061775 0.015796
										}
									}
								}
							}
						}
					}
				}
			}
		}
	}
	JOINT genital
	{
		OFFSET	-0.091370 -5.554262 3.239159
		CHANNELS 3 Xrotation Zrotation Yrotation
		End Site
		{
			OFFSET 0.002708 -4.639669 -0.613097
		}
	}
	JOINT rThigh
	{
		OFFSET	-3.560857 -2.181151 -0.326702
		CHANNELS 3 Xrotation Zrotation Yrotation
		JOINT rShin
		{
			OFFSET	-0.385499 -18.214804 2.505740
			CHANNELS 3 Xrotation Zrotation Yrotation
			JOINT rFoot
			{
				OFFSET	-2.105699 -18.589760 -2.227269
				CHANNELS 3 Xrotation Zrotation Yrotation
				JOINT rToe
				{
					OFFSET	-1.309085 -2.764789 4.095279
					CHANNELS 3 Xrotation Yrotation Zrotation
					JOINT rBigToe1
					{
						OFFSET	1.198293 -0.242935 1.999244
						CHANNELS 3 Xrotation Yrotation Zrotation
						JOINT rBigToe2
						{
							OFFSET	-0.297528 -0.013649 0.825796
							CHANNELS 3 Xrotation Yrotation Zrotation
							End Site
							{
								OFFSET -0.722810 -0.483358 1.231282
							}
						}
					}
					JOINT rIndexToe1
					{
						OFFSET	0.138075 -0.146543 1.983515
						CHANNELS 3 Xrotation Yrotation Zrotation
						JOINT rIndexToe2
						{
							OFFSET	-0.350591 -0.320002 1.096724
							CHANNELS 3 Xrotation Yrotation Zrotation
							End Site
							{
								OFFSET -0.289847 -0.693301 0.530581
							}
						}
					}
					JOINT rMidToe1
					{
						OFFSET	-0.632950 -0.522491 1.312353
						CHANNELS 3 Xrotation Yrotation Zrotation
						JOINT rMidToe2
						{
							OFFSET	-0.290097 -0.260226 0.751674
							CHANNELS 3 Xrotation Yrotation Zrotation
							End Site
							{
								OFFSET -0.285867 -0.462487 1.069826
							}
						}
					}
					JOINT rRingToe1
					{
						OFFSET	-1.307573 -0.715240 1.408727
						CHANNELS 3 Xrotation Yrotation Zrotation
						JOINT rRingToe2
						{
							OFFSET	-0.266100 0.346634 0.264192
							CHANNELS 3 Xrotation Yrotation Zrotation
							End Site
							{
								OFFSET -0.091113 -0.913374 0.990953
							}
						}
					}
					JOINT rPinkyToe1
					{
						OFFSET	-1.693071 -0.426117 -0.036892
						CHANNELS 3 Xrotation Yrotation Zrotation
						JOINT rPinkyToe2
						{
							OFFSET	-0.096374 -0.096375 0.867372
							CHANNELS 3 Xrotation Yrotation Zrotation
							End Site
							{
								OFFSET 0.000000 0.000000 0.867372
							}
						}
					}
				}
			}
		}
	}
	JOINT lThigh
	{
		OFFSET	3.378116 -2.181151 -0.326702
		CHANNELS 3 Xrotation Zrotation Yrotation
		JOINT lShin
		{
			OFFSET	0.385499 -18.214804 2.505740
			CHANNELS 3 Xrotation Zrotation Yrotation
			JOINT lFoot
			{
				OFFSET	2.105699 -18.589760 -2.227269
				CHANNELS 3 Xrotation Zrotation Yrotation
				JOINT lToe
				{
					OFFSET	1.309085 -2.764789 4.095279
					CHANNELS 3 Xrotation Yrotation Zrotation
					JOINT lBigToe1
					{
						OFFSET	-1.198293 -0.242935 1.999244
						CHANNELS 3 Xrotation Yrotation Zrotation
						JOINT lBigToe2
						{
							OFFSET	0.297528 -0.013649 0.825796
							CHANNELS 3 Xrotation Yrotation Zrotation
							End Site
							{
								OFFSET 0.722810 -0.483358 1.231282
							}
						}
					}
					JOINT lIndexToe1
					{
						OFFSET	-0.138075 -0.146543 1.983515
						CHANNELS 3 Xrotation Yrotation Zrotation
						JOINT lIndexToe2
						{
							OFFSET	0.350591 -0.320002 1.096724
							CHANNELS 3 Xrotation Yrotation Zrotation
							End Site
							{
								OFFSET 0.289847 -0.693301 0.530581
							}
						}
					}
					JOINT lMidToe1
					{
						OFFSET	0.632950 -0.522491 1.312353
						CHANNELS 3 Xrotation Yrotation Zrotation
						JOINT lMidToe2
						{
							OFFSET	0.290097 -0.260226 0.751674
							CHANNELS 3 Xrotation Yrotation Zrotation
							End Site
							{
								OFFSET 0.285867 -0.462487 1.069826
							}
						}
					}
					JOINT lRingToe1
					{
						OFFSET	1.307573 -0.715240 1.408727
						CHANNELS 3 Xrotation Yrotation Zrotation
						JOINT lRingToe2
						{
							OFFSET	0.266100 0.346634 0.264192
							CHANNELS 3 Xrotation Yrotation Zrotation
							End Site
							{
								OFFSET 0.091113 -0.913374 0.990953
							}
						}
					}
					JOINT lPinkyToe1
					{
						OFFSET	1.693071 -0.426117 -0.036892
						CHANNELS 3 Xrotation Yrotation Zrotation
						JOINT lPinkyToe2
						{
							OFFSET	0.096374 -0.096375 0.867372
							CHANNELS 3 Xrotation Yrotation Zrotation
							End Site
							{
								OFFSET 0.000000 0.000000 0.867372
							}
						}
					}
				}
			}
		}
	}
}
MOTION
Frames:     5
Frame Time: 0.033333
9.661469 36.055668 72.536713 -12.343750 6.210948 -35.389599 -4.501945 0.008733 0.000000 15.973477 -8.285392 4.793060 5.580616 -5.526932 -9.655440 10.454641 6.000000 -10.147000 0.000000 0.000000 0.000000 0.000000 0.000000 0.000000 -4.798280 -0.635463 2.385890 64.471031 -4.903391 15.991200 27.823051 -9.890079 76.332024 -0.396582 5.590121 -2.388587 -0.256581 -2.642761 -0.962491 5.514422 -2.175355 -2.737416 -7.435342 2.350467 2.110547 -0.979997 0.551867 -0.558004 -0.036281 0.537104 -0.014754 -0.573170 0.047461 -0.273244 0.572471 0.819446 0.173186 -0.113074 0.937469 -0.032589 0.639808 -0.088649 0.135939 0.438184 -0.551863 0.001108 -0.427185 -0.808973 0.024661 -0.117171 0.877510 -0.019942 1.399358 0.586149 -0.279817 1.177203 -0.793951 0.000000 4.247839 -2.942966 0.000000 5.292520 -0.275813 2.206180 -69.160698 5.986246 12.316000 -4.059497 -3.103329 12.005193 -6.549027 3.772462 -0.021823 -0.378848 3.138413 -1.143327 -5.635031 2.102942 -2.645343 7.472383 -2.653987 2.351721 0.941305 -0.981940 -0.534091 0.090722 -0.576144 -0.037134 0.635567 -0.183869 -0.302812 -0.959271 -1.228046 0.289644 0.094331 -1.162086 -0.027320 -0.563658 -0.038473 0.119807 -1.201047 -0.029525 0.019885 0.341509 0.751493 0.021304 0.135685 -0.818680 -0.021731 -2.164369 -1.351252 -0.445696 -1.370100 0.726566 0.000000 -4.120970 3.080753 0.000000 0.000000 0.000000 0.000000 -7.194209 0.165444 -2.954838 66.598389 -7.122938 -9.300815 -0.395511 -10.009732 0.322945 1.333433 6.774928 -0.086697 -0.731303 8.325410 0.377497 -0.462450 -1.220352 -0.087001 0.855644 2.693681 0.988178 -0.792739 1.779825 0.522931 -1.693591 2.517553 0.386737 0.593233 0.312785 0.317543 3.321641 -0.230091 0.901023 -1.470243 4.109905 -0.652228 -0.979696 -0.187249 -0.138271 0.000000 0.000000 0.000000 -36.313339 -6.028015 -2.377110 28.559320 8.161928 -8.447711 -1.059359 -0.772178 -6.192022 0.722876 -2.675009 -0.038156 -1.681468 -8.532557 0.105418 0.163490 0.664019 -0.030836 0.062794 -1.712316 -0.465588 0.170145 -0.904244 -0.387581 -2.682131 -1.260577 0.346775 1.305249 0.352929 -0.289062 2.404366 0.271490 -0.625510 -0.448589 -0.069113 0.192312 -0.649039 0.248024 0.090795 0.594569 0.426997 -0.000000 
8.310747 35.429008 75.573700 -14.384767 6.054680 -38.024399 -4.501945 0.008733 0.000000 17.366325 -10.834099 3.432180 4.852625 -5.220348 -9.961968 10.007504 6.000000 -10.434000 0.000000 0.000000 0.000000 0.000000 0.000000 0.000000 -4.076780 -0.390345 2.422980 64.354332 -5.814419 16.780899 24.690916 -8.839747 75.527306 -0.320334 5.580521 -2.362333 -0.256581 -2.642761 -0.962491 5.514422 -2.175355 -2.737416 -7.435342 2.350467 2.110547 -0.979997 0.551867 -0.558004 -0.036281 0.537104 -0.014754 -0.573170 0.047461 -0.273244 0.572471 0.819446 0.173186 -0.113074 0.937469 -0.032589 0.639808 -0.088649 0.135939 0.438184 -0.551863 0.001108 -0.427185 -0.808973 0.024661 -0.117171 0.877510 -0.019942 1.399358 0.586149 -0.279817 1.177203 -0.793951 0.000000 4.247839 -2.942966 0.000000 4.924360 -1.036380 2.150940 -67.751518 3.220991 12.939400 -3.741870 -3.455348 13.051068 -6.740757 3.702315 0.046904 -0.378848 3.138413 -1.143327 -5.635031 2.102942 -2.645343 7.472383 -2.653987 2.351721 0.941305 -0.981940 -0.534091 0.090722 -0.576144 -0.037134 0.635567 -0.183869 -0.302812 -0.959271 -1.228046 0.289644 0.094331 -1.162086 -0.027320 -0.563658 -0.038473 0.119807 -1.201047 -0.029525 0.019885 0.341509 0.751493 0.021304 0.135685 -0.818680 -0.021731 -2.164369 -1.351252 -0.445696 -1.370100 0.726566 0.000000 -4.120970 3.080753 0.000000 0.000000 0.000000 0.000000 -11.244987 -1.405129 -1.174862 77.564972 -5.446609 -8.906868 4.911849 -10.173911 -1.503706 1.333433 6.774928 -0.086697 -0.731303 8.325410 0.377497 -0.462450 -1.220352 -0.087001 0.855644 2.693681 0.988178 -0.792739 1.779825 0.522931 -1.693591 2.517553 0.386737 0.593233 0.312785 0.317543 3.321641 -0.230091 0.901023 -1.470243 4.109905 -0.652228 -0.979696 -0.187249 -0.138271 0.000000 0.000000 0.000000 -36.112156 -6.759536 -1.322217 37.207092 7.557187 -8.541401 1.417795 -0.366350 -6.913266 0.722876 -2.675009 -0.038156 -1.681468 -8.532557 0.105418 0.163490 0.664019 -0.030836 0.062794 -1.712316 -0.465588 0.170145 -0.904244 -0.387581 -2.682131 -1.260577 0.346775 1.305249 0.352929 -0.289062 2.404366 0.271490 -0.625510 -0.448589 -0.069113 0.192312 -0.649039 0.248024 0.090795 0.594569 0.426997 -0.000000 
6.909422 34.979694 78.240250 -16.318359 5.341807 -40.326302 -4.501945 0.008733 0.000000 19.561506 -13.084024 0.787969 3.488524 -4.688801 -9.956932 10.531434 6.000000 -10.278100 0.000000 0.000000 0.000000 0.000000 0.000000 0.000000 -3.414680 -0.223097 2.472420 64.471764 -5.099771 17.489401 22.178532 -7.827059 75.680489 -0.149095 5.629584 -2.303301 -0.256581 -2.642761 -0.962491 5.514422 -2.175355 -2.737416 -7.435342 2.350467 2.110547 -0.979997 0.551867 -0.558004 -0.036281 0.537104 -0.014754 -0.573170 0.047461 -0.273244 0.572471 0.819446 0.173186 -0.113074 0.937469 -0.032589 0.639808 -0.088649 0.135939 0.438184 -0.551863 0.001108 -0.427185 -0.808973 0.024661 -0.117171 0.877510 -0.019942 1.399358 0.586149 -0.279817 1.177203 -0.793951 0.000000 4.247839 -2.942966 0.000000 4.466950 -1.757290 2.107630 -65.382103 -0.601628 12.970300 -2.180705 -3.601901 15.445352 -7.202652 3.419619 0.212345 -0.378848 3.138413 -1.143327 -5.635031 2.102942 -2.645343 7.472383 -2.653987 2.351721 0.941305 -0.981940 -0.534091 0.090722 -0.576144 -0.037134 0.635567 -0.183869 -0.302812 -0.959271 -1.228046 0.289644 0.094331 -1.162086 -0.027320 -0.563658 -0.038473 0.119807 -1.201047 -0.029525 0.019885 0.341509 0.751493 0.021304 0.135685 -0.818680 -0.021731 -2.164369 -1.351252 -0.445696 -1.370100 0.726566 0.000000 -4.120970 3.080753 0.000000 0.000000 0.000000 0.000000 -17.042772 -2.153582 0.177340 87.865028 -2.683922 -9.228065 7.222104 -11.000801 -2.473472 1.333433 6.774928 -0.086697 -0.731303 8.325410 0.377497 -0.462450 -1.220352 -0.087001 0.855644 2.693681 0.988178 -0.792739 1.779825 0.522931 -1.693591 2.517553 0.386737 0.593233 0.312785 0.317543 3.321641 -0.230091 0.901023 -1.470243 4.109905 -0.652228 -0.979696 -0.187249 -0.138271 0.000000 0.000000 0.000000 -34.758450 -6.776544 0.185533 44.880634 6.449078 -6.535832 -0.548623 1.962951 -7.579315 0.722876 -2.675009 -0.038156 -1.681468 -8.532557 0.105418 0.163490 0.664019 -0.030836 0.062794 -1.712316 -0.465588 0.170145 -0.904244 -0.387581 -2.682131 -1.260577 0.346775 1.305249 0.352929 -0.289062 2.404366 0.271490 -0.625510 -0.448589 -0.069113 0.192312 -0.649039 0.248024 0.090795 0.594569 0.426997 -0.000000 
5.385979 35.080044 80.558022 -16.933592 4.716793 -42.489399 -4.501945 0.008733 0.000000 20.388803 -14.574566 -2.369060 3.198256 -4.058735 -9.610139 11.519090 6.000000 -9.653100 0.000000 0.000000 0.000000 0.000000 0.000000 0.000000 -3.412860 -0.115425 2.454420 65.873451 -4.322579 18.086300 20.741133 -7.174910 77.460632 -0.242812 5.297472 -2.339622 -0.256581 -2.642761 -0.962491 5.514422 -2.175355 -2.737416 -7.435342 2.350467 2.110547 -0.979997 0.551867 -0.558004 -0.036281 0.537104 -0.014754 -0.573170 0.047461 -0.273244 0.572471 0.819446 0.173186 -0.113074 0.937469 -0.032589 0.639808 -0.088649 0.135939 0.438184 -0.551863 0.001108 -0.427185 -0.808973 0.024661 -0.117171 0.877510 -0.019942 1.399358 0.586149 -0.279817 1.177203 -0.793951 0.000000 4.247839 -2.942966 0.000000 4.194020 -2.405820 2.053520 -62.678444 -3.977326 12.577900 -0.638813 -3.531157 18.051535 -7.768514 3.074786 0.413663 -0.378848 3.138413 -1.143327 -5.635031 2.102942 -2.645343 7.472383 -2.653987 2.351721 0.941305 -0.981940 -0.534091 0.090722 -0.576144 -0.037134 0.635567 -0.183869 -0.302812 -0.959271 -1.228046 0.289644 0.094331 -1.162086 -0.027320 -0.563658 -0.038473 0.119807 -1.201047 -0.029525 0.019885 0.341509 0.751493 0.021304 0.135685 -0.818680 -0.021731 -2.164369 -1.351252 -0.445696 -1.370100 0.726566 0.000000 -4.120970 3.080753 0.000000 0.000000 0.000000 0.000000 -24.988768 -2.443686 0.291465 95.813248 0.339692 -8.887226 9.411513 -11.862179 -3.056507 1.333433 6.774928 -0.086697 -0.731303 8.325410 0.377497 -0.462450 -1.220352 -0.087001 0.855644 2.693681 0.988178 -0.792739 1.779825 0.522931 -1.693591 2.517553 0.386737 0.593233 0.312785 0.317543 3.321641 -0.230091 0.901023 -1.470243 4.109905 -0.652228 -0.979696 -0.187249 -0.138271 0.000000 0.000000 0.000000 -32.308434 -6.029625 1.665545 48.516861 5.679739 -4.093253 -4.302156 4.319177 -8.084719 0.722876 -2.675009 -0.038156 -1.681468 -8.532557 0.105418 0.163490 0.664019 -0.030836 0.062794 -1.712316 -0.465588 0.170145 -0.904244 -0.387581 -2.682131 -1.260577 0.346775 1.305249 0.352929 -0.289062 2.404366 0.271490 -0.625510 -0.448589 -0.069113 0.192312 -0.649039 0.248024 0.090795 0.594569 0.426997 -0.000000 
3.679068 35.897697 82.631500 -16.796873 3.906249 -44.908600 -4.501945 0.008733 0.000000 20.062782 -15.184251 -5.338660 4.516788 -3.723126 -8.803472 12.016277 6.000000 -8.696480 0.000000 0.000000 0.000000 0.000000 0.000000 0.000000 -3.713290 -0.027728 2.417260 67.841736 -4.552158 18.902700 20.710199 -7.008935 80.495987 -0.749924 4.495247 -2.526216 -0.256581 -2.642761 -0.962491 5.514422 -2.175355 -2.737416 -7.435342 2.350467 2.110547 -0.979997 0.551867 -0.558004 -0.036281 0.537104 -0.014754 -0.573170 0.047461 -0.273244 0.572471 0.819446 0.173186 -0.113074 0.937469 -0.032589 0.639808 -0.088649 0.135939 0.438184 -0.551863 0.001108 -0.427185 -0.808973 0.024661 -0.117171 0.877510 -0.019942 1.399358 0.586149 -0.279817 1.177203 -0.793951 0.000000 4.247839 -2.942966 0.000000 4.336050 -2.681990 2.003660 -60.644722 -5.935880 11.986500 -0.483872 -3.367075 19.282402 -8.075431 2.894510 0.522620 -0.378848 3.138413 -1.143327 -5.635031 2.102942 -2.645343 7.472383 -2.653987 2.351721 0.941305 -0.981940 -0.534091 0.090722 -0.576144 -0.037134 0.635567 -0.183869 -0.302812 -0.959271 -1.228046 0.289644 0.094331 -1.162086 -0.027320 -0.563658 -0.038473 0.119807 -1.201047 -0.029525 0.019885 0.341509 0.751493 0.021304 0.135685 -0.818680 -0.021731 -2.164369 -1.351252 -0.445696 -1.370100 0.726566 0.000000 -4.120970 3.080753 0.000000 0.000000 0.000000 0.000000 -33.440460 -2.985887 -1.047960 101.208794 2.735144 -7.848758 11.519806 -12.376797 -3.180943 1.333433 6.774928 -0.086697 -0.731303 8.325410 0.377497 -0.462450 -1.220352 -0.087001 0.855644 2.693681 0.988178 -0.792739 1.779825 0.522931 -1.693591 2.517553 0.386737 0.593233 0.312785 0.317543 3.321641 -0.230091 0.901023 -1.470243 4.109905 -0.652228 -0.979696 -0.187249 -0.138271 0.000000 0.000000 0.000000 -28.251345 -4.861579 3.117122 47.982529 5.413347 -2.544098 -7.193123 5.747129 -8.214461 0.722876 -2.675009 -0.038156 -1.681468 -8.532557 0.105418 0.163490 0.664019 -0.030836 0.062794 -1.712316 -0.465588 0.170145 -0.904244 -0.387581 -2.682131 -1.260577 0.346775 1.305249 0.352929 -0.289062 2.404366 0.271490 -0.625510 -0.448589 -0.069113 0.192312 -0.649039 0.248024 0.090795 0.594569 0.426997 -0.000000 
